# xmcd
#
# Track frame offsets:
#	182
#	12502
#	23605
#	29950
#	41570
#	53922
#	66397
#	75802
#	88332
#	98147
#	111157
#	121715
#	130315
#	141522
#	149507
#	166830
#	177515
#	188615
#	195555
#	206825
#
# Disc length: 2932
#
# Revision: 5
# Processed by: cddbd v1.5.1PL0 Copyright (c) Steve Scherf et al.
# Submitted via: CDex 1.51
# Normalized: r4:DSETVAR1
#
DISCID=220b7214
DTITLE=Various Artist - Legends - Country Special
DYEAR=1993
DGENRE=Country
TTITLE0=Queen Of Hearts - Hank Locklin
TTITLE1=Sanford Clark - Big Time Day Tomorow
TTITLE2=Lee Coway - People
TTITLE3=Patsy Cline - Let The Teardrops Fall
TTITLE4=Faron Young - Country Girl
TTITLE5=Bobby Bare - When Love Is Gone
TTITLE6=Country Deputies - Red Raired Boy
TTITLE7=Patsy Cline - Fingerprints
TTITLE8=Buck Owens - There Goes My Love
TTITLE9=Bobby Bare - I Took A Memory To Lunch
TTITLE10=The Jordanaires - You're Wasting You Time Girl
TTITLE11=Georges Jones - That's The Way I Feel
TTITLE12=Hank Thompson - Who Left The Door To Heaven Open
TTITLE13=Kitty Wells - Thou Shalt Not Steal
TTITLE14=Lynn Anderson - Close To You
TTITLE15=Hank Locklin - Please Help Me, I'm Falling
TTITLE16=Buck Owens - Down Of The Corner Of Love
TTITLE17=Webb Pierce - I'm Walking The Dog
TTITLE18=Geoge Jones - One Is A Lonely Nuber
TTITLE19=Helen Morgan - Divorce
EXTD=YEAR: 1993
EXTT0=
EXTT1=
EXTT2=
EXTT3=
EXTT4=
EXTT5=
EXTT6=
EXTT7=
EXTT8=
EXTT9=
EXTT10=
EXTT11=
EXTT12=
EXTT13=
EXTT14=
EXTT15=
EXTT16=
EXTT17=
EXTT18=
EXTT19=
PLAYORDER=
